<svg viewBox="0 0 20 16" xmlns="http://www.w3.org/2000/svg" xmlns:xlink="http://www.w3.org/1999/xlink"><style>:root&gt;svg{display:none}:root&gt;svg:target{display:block}</style><svg fill="none" viewBox="0 0 12 8" id="sprite--confirm" xmlns="http://www.w3.org/2000/svg"><path fill-rule="evenodd" clip-rule="evenodd" d="M11.025.641a.625.625 0 010 .884L5.192 7.36a.625.625 0 01-.884 0L.975 4.025a.625.625 0 11.883-.884L4.75 6.033 10.14.64a.625.625 0 01.884 0z" fill="#fff"/></svg><svg fill="none" viewBox="0 0 20 16" id="sprite--mail" xmlns="http://www.w3.org/2000/svg"><path d="M5.29.908a54.396 54.396 0 019.42 0l1.511.13a2.889 2.889 0 012.313 1.546.236.236 0 01-.091.307l-6.266 3.88a4.25 4.25 0 01-4.4.045L1.47 3.088a.236.236 0 01-.103-.293A2.889 2.889 0 013.78 1.039L5.29.908z" fill="#000"/><path d="M1.362 4.767a.248.248 0 00-.373.187 30.351 30.351 0 00.184 7.56A2.888 2.888 0 003.78 14.96l1.51.131c3.135.273 6.287.273 9.422 0l1.51-.13a2.888 2.888 0 002.606-2.449 30.35 30.35 0 00.161-7.779.248.248 0 00-.377-.182l-5.645 3.494a5.75 5.75 0 01-5.951.061l-5.653-3.34z" fill="#000"/></svg></svg>